<svg id="Layer_1" data-name="Layer 1" xmlns="http://www.w3.org/2000/svg" viewBox="0 0 512.92 314.99"><defs><style>.cls-1{font-size:72px;font-family:Source Sans Pro;}.cls-1,.cls-2{fill:#55be9b;}</style></defs><title>logo</title><text class="cls-1" transform="translate(0 291.59)">Cloudphysician </text><path class="cls-2" d="M411,289.05c2.39,2.75,4.87,4.52,2.11,6.91L406,302.14c-2.76,2.39-4.16-.31-6.55-3.06L389.3,293a6.61,6.61,0,0,1,.66-9.32l7.12-6.17a6.62,6.62,0,0,1,9.33.66Z" transform="translate(-262.38 -149.63)"/><path class="cls-2" d="M419.18,299.68a3.79,3.79,0,0,1-.44,5.33l-6.07,5.19a3.8,3.8,0,0,1-5.35-.42v0a3.79,3.79,0,0,1,.43-5.34l6.07-5.19a3.79,3.79,0,0,1,5.35.42Z" transform="translate(-262.38 -149.63)"/><path class="cls-2" d="M396.15,197.58c1.73-3,2.54-5.8,5.56-4.07l7.8,4.45c3,1.73,1,3.85-.7,6.86l-2.29,11.06a6.31,6.31,0,0,1-8.6,2.34l-7.8-4.46a6.29,6.29,0,0,1-2.34-8.59Z" transform="translate(-262.38 -149.63)"/><path class="cls-2" d="M415,194.37a3.62,3.62,0,0,1-4.94,1.29l-6.59-3.83a3.61,3.61,0,0,1-1.31-4.94v0a3.63,3.63,0,0,1,4.94-1.29l6.59,3.82a3.61,3.61,0,0,1,1.31,4.95v0Z" transform="translate(-262.38 -149.63)"/><path class="cls-2" d="M575.53,258.64a85.85,85.85,0,0,0,0-28.6,97.35,97.35,0,0,0-2.34-10.74,94.93,94.93,0,0,0-163.28-36.87c1.88,1.15,3.73,2.34,5.54,3.58a85.6,85.6,0,0,1,36.65-24.38c29-9.5,52.93-5.43,71.52,5s37.36,30.26,43.09,50.81c0.82,3,3,14.52,3.46,17.54,1.71,10.72.78,20.17-1.67,30.1A65.1,65.1,0,0,0,575.53,258.64Z" transform="translate(-262.38 -149.63)"/><path class="cls-2" d="M575.58,258.28a55,55,0,0,1-7.11,6.86c-5.77,22.51-20.37,43.35-40.85,55-26.47,15.1-50.77,15.91-71.09,9.36C445,325.81,432.09,318,421.35,308.41c-2.85,2.48-2.4,2-5.35,4.53a99.11,99.11,0,0,0,36.95,22.14,94.67,94.67,0,0,0,72.65-5.88A92.61,92.61,0,0,0,575.58,258.28Z" transform="translate(-262.38 -149.63)"/><path class="cls-2" d="M319.7,252.58c-3.62,7.35-5.72,16.12-6.82,24.61a82.45,82.45,0,0,0-.67,9.41c-0.3,21.82,6.54,42.64,21.78,58.29s36,25.54,57.83,25.84c16.5,0.23,35.4-.08,48.79.25-1.27-1.4,1.2-4.73,0-6.19-13.06.16-30.39-.24-43.18,0.16-26.16.83-44-10.23-57.11-23-13.52-13.13-23.73-33.87-23.28-55.83,0.05-2.64,1.14-9.13,1.48-11.75a62.65,62.65,0,0,1,8.67-24.4C324.82,251,324.45,242.45,319.7,252.58Z" transform="translate(-262.38 -149.63)"/><path class="cls-2" d="M319.07,253.91a54.09,54.09,0,0,1,8.15-3.93c9.35-15.72,24.47-28.49,42.1-34.11,0.26-2.18.59-4.32,1-6.44A80.64,80.64,0,0,0,319.07,253.91Z" transform="translate(-262.38 -149.63)"/><path class="cls-2" d="M578.46,244.22c20.88,2.33,33.42,8.92,43,19.19,9.85,10.55,16.16,27.62,15,44.41a60,60,0,0,1-1.53,8.87c-2.66,8.71-4.39,12.83-8.07,18.47,1.85-.67,3.2,6.74,7.22-0.84a63.07,63.07,0,0,0,7.08-18.63c0.42-2.36,1.23-6.8,1.38-9.21a63.6,63.6,0,0,0-15.85-45.85c-11.07-12.55-22.56-19.35-44.4-22.22" transform="translate(-262.38 -149.63)"/><path class="cls-2" d="M635,331.44c-1.78,1.21-5.53,1.44-7.53,2.33-6.93,12.17-21.63,29.66-49.41,31.1-0.17,1.67-.13,4.31-0.42,5.94C609.25,369.72,627.74,348.81,635,331.44Z" transform="translate(-262.38 -149.63)"/><path class="cls-2" d="M484.64,285.63a21.12,21.12,0,0,1-2.38-.14A20.64,20.64,0,1,1,484.64,285.63Zm0-36.89a16.24,16.24,0,1,0,1.88.11A16.44,16.44,0,0,0,484.59,248.75Z" transform="translate(-262.38 -149.63)"/><path class="cls-2" d="M442.84,213.8c-18.74-11.22-44.22-11.86-65.41-6.56-2.61.65-1.36,0.31-9,2.77-0.29,2.14.45,3.86,0.31,6,1.58-.61,4.68-1.64,6.31-2.13,25.08-7.5,46.81-5.05,62.82,3.89,13.62,7.61,20.5,14.86,34.88,32.17,2.86-1.52,1.23-1.44,4.19-3C468,233.93,453.49,220.19,442.84,213.8Z" transform="translate(-262.38 -149.63)"/><polyline class="cls-2" points="315.56 221.18 173.92 221.26 168.08 215.29 317.66 215.29"/><path class="cls-2" d="M575.38,225.54l0.15,33.1s1.61-15.61,14-12.84l1.18-6S577.14,236.86,575.38,225.54Z" transform="translate(-262.38 -149.63)"/><path class="cls-2" d="M484.49,252.18a12.84,12.84,0,1,0,1.48.09A12.82,12.82,0,0,0,484.49,252.18Z" transform="translate(-262.38 -149.63)"/><path class="cls-2" d="M571.64,275a55,55,0,0,0-3.2-9.35c5.12-22.67,1.63-47.87-11.28-67.61-16.68-25.51-37.94-37.3-59-40.73-12-2-28.25-.55-42.17,3.07-1.4-3.5,0-3.17-1.48-6.77a99.12,99.12,0,0,1,43-2.86,94.67,94.67,0,0,1,62,38.34A92.61,92.61,0,0,1,571.64,275Z" transform="translate(-262.38 -149.63)"/></svg>