<svg id="Layer_1" data-name="Layer 1" xmlns="http://www.w3.org/2000/svg" viewBox="0 0 133.89 133.8"><defs><style>.cls-1{fill:#fff;}</style></defs><title>icon-1</title><path class="cls-1" d="M0,65.94C1.16,29.63,29.58,0,66.62,0c39.61,0,65.59,30.45,67.27,65.84-1,41.62-31.92,67.3-67.8,68C26.3,131.81.73,102.25,0,65.94Zm130.48,1.39C130.25,35.18,106.54,4.66,69,3.28A63.39,63.39,0,0,0,3.51,63.86c-1.5,32,20.94,64.57,61.39,66.36C97.92,131.67,129.15,106.87,130.48,67.33Z"/><path class="cls-1" d="M90.54,27.49a8,8,0,0,1,.51,2.06q0.05,36.57,0,73.13a13.3,13.3,0,0,1-.61,2.63,36.54,36.54,0,0,1-4.65.6c-12,.05-24,0-36,0a20,20,0,0,1-2.39-.1c-2.26-.27-3.12-1.17-3.28-3.48-0.08-1.19,0-2.4,0-3.6q0-32.67,0-65.34c0-5.65-.69-7.32,6.92-7.23,11.19,0.13,22.38,0,33.57,0C86.56,26.25,88.63,25.86,90.54,27.49ZM46.12,28.71a43.35,43.35,0,0,0-.46,4.53q0,32.93,0,65.86a48.5,48.5,0,0,0,.53,5c6.7,0.17,13,.1,19.74.05A21.66,21.66,0,0,1,65,101a2.82,2.82,0,0,1,2.6-3.3,2.69,2.69,0,0,1,2.84,3.05,22.5,22.5,0,0,1-.86,3.37c5.81,0,11.19,0,16.56,0a17.85,17.85,0,0,0,3.37-.7c0.1-1.29.24-2.27,0.24-3.25q0-34.13,0-68.26a20,20,0,0,0-.53-3.28C83.56,27.83,51.1,27.88,46.12,28.71ZM67.21,101.5l1.23-.39a9.65,9.65,0,0,0-.58-1.31,1.39,1.39,0,0,0-.81.33A5.16,5.16,0,0,0,67.21,101.5Z"/><path class="cls-1" d="M48.29,34.22c13.07,0,25.58,0,38.25,0a11.44,11.44,0,0,1,.68,2.53q0,28.72,0,57.44a13.16,13.16,0,0,1-.38,2.06c-6.21,1.26-12.58.36-18.86,0.67s-12.72-.16-19.33-0.3A20.76,20.76,0,0,1,48,93.07Q48,65.55,48,38C48,37.06,48.14,36.09,48.29,34.22Zm2.08,2.2A5.42,5.42,0,0,0,49.89,38q-0.07,26.69-.07,53.38a23.22,23.22,0,0,0,.34,2.87c4.38,1.12,16,1.44,31.75.84a20.05,20.05,0,0,0,3.28-.65C85.9,89.94,86.31,49,85.77,39a22.1,22.1,0,0,0-.56-2.93,16.76,16.76,0,0,0-2.52-.4q-15.59,0-31.18.13A3.37,3.37,0,0,0,50.36,36.42Z"/><path class="cls-1" d="M72.43,31.66H63.7C66.6,30.47,69.51,31,72.43,31.66Z"/><path class="cls-1" d="M81.13,50.76c-3.79-3.38-7.58-6.68-11.1-11.42A29.75,29.75,0,0,1,81.13,50.76Z"/><path class="cls-1" d="M77.49,38.08A22.47,22.47,0,0,1,83,43.84a3.37,3.37,0,0,1-1.33.31c-1.75-1.72-4-3-4.79-5.56A2.35,2.35,0,0,1,77.49,38.08Z"/></svg>