<svg id="Layer_1" data-name="Layer 1" xmlns="http://www.w3.org/2000/svg" viewBox="0 0 133.89 133.8"><defs><style>.cls-1{fill:#fff;}</style></defs><title>icon-2</title><path class="cls-1" d="M0,65.91C1.18,29.58,29.64,0,66.65,0c39.63,0,65.58,30.51,67.24,65.87-1.06,41.66-32,67.29-67.83,67.94C26.21,131.79.71,102.16,0,65.91ZM130.49,67c-0.41-32.37-24.4-62.57-61.77-63.78A63.4,63.4,0,0,0,3.5,64.14C2.16,96.46,25,128.66,65.19,130.22,98.38,131.51,129.33,106.45,130.49,67Z"/><path class="cls-1" d="M53.72,80.92a21.75,21.75,0,0,0,1.12-3.12Q59.13,53,63.37,28.22c0.41-2.36.89-4.71,1.48-7a1.7,1.7,0,0,1,1.36-.9,1.74,1.74,0,0,1,1.28,1q0.94,3.77,1.62,7.6,6.19,34.8,12.36,69.6a32.37,32.37,0,0,0,1,3.27c1.52-1.19,1.51-2.64,2-3.76,0.53-1.29.85-2.66,1.26-4l1.22-4c0.41-1.34.78-2.68,1.24-4s1-2.56,1.55-4.06c1.68-.15,3.22-0.39,4.78-0.41,4.2-.05,8.39,0,12.59,0A9.65,9.65,0,0,1,110,82a1.68,1.68,0,0,1,.92,1.3,1.62,1.62,0,0,1-1,1.2,38.3,38.3,0,0,1-4.77.27c-4.19,0-8.38,0-12.82,0a41.23,41.23,0,0,0-1.64,3.84c-2,6.29-3.85,12.6-5.83,18.89-0.52,1.64-.63,3.55-2.38,4.65-1.89-.17-2-1.66-2.23-3Q78.34,98.82,76.52,88.5,72.12,63.73,67.71,39c-0.28-1.56-.69-3.09-1.15-5.1-1.5,1.74-1.6,3.48-1.88,5.11-2.16,12.6-4.26,25.2-6.42,37.8C57.9,78.9,57.36,81,57,82.87c-2.21,1.42-4.17.74-6.32,0.74l-3.43-7-3.6,6.69a64.28,64.28,0,0,1-15.27,0A2.06,2.06,0,0,1,27.58,82a1.07,1.07,0,0,1,.67-0.79,31.29,31.29,0,0,1,4.13-.46c3-.08,5.94-0.06,8.44-0.08,3.3-3.27,2.85-8,6.37-10.73C50.76,72.6,50,77.74,53.72,80.92Z"/></svg>