<svg id="Layer_1" data-name="Layer 1" xmlns="http://www.w3.org/2000/svg" viewBox="0 0 133.89 133.8"><defs><style>.cls-1{fill:#fff;}</style></defs><title>icon-3</title><path class="cls-1" d="M0,66.32C0.89,30.43,28.79.29,66.24,0c39.13-.3,65.66,29.5,67.64,65.46-0.78,41.09-31,67.42-67.43,68.35C27.52,132.13,1,103.48,0,66.32ZM66.93,3.22C32.69,3.25,3.76,30.9,3.48,65.92c-0.27,34,24.87,63.69,62.89,64.32,33.61,0.56,64.31-25.3,63.94-64.38C130,32.08,103.61,3.51,66.93,3.22Z" transform="translate(0 0)"/><path class="cls-1" d="M87.72,82.25c-0.49,1.55-.77,2.5-1.1,3.43-1,2.78-3.08,4.09-5.85,4.46a27.42,27.42,0,0,1-3.59.11c-12,0-24,0-36,0-8,0-9.86-1.89-9.88-9.93q0-13.5,0-27a19.16,19.16,0,0,1,.21-4.18A6.25,6.25,0,0,1,36.75,44a24.06,24.06,0,0,1,4.18-.21q18.3,0,36.59,0l2.4,0a6.66,6.66,0,0,1,6.82,4.81c0.32,0.91.57,1.84,1,3.21,1.8-1.59,3.31-2.86,4.75-4.21a6.59,6.59,0,0,1,5-1.65c3.25,0.1,4.79,1.47,5,4.7,0.14,2,.06,4,0.06,6q0,11.1,0,22.2c0,1.2,0,2.4,0,3.6,0,2.1-.3,4.05-2.43,5.06A6.29,6.29,0,0,1,93.28,87C91.53,85.7,90,84.18,87.72,82.25ZM82.16,49.15C78,47.62,74,47.5,42.06,47.93c-2,0-4-.42-5.75,1.3a6.29,6.29,0,0,0-.42,1.62q0,16.18,0,32.35a7.73,7.73,0,0,0,.83,2.28,23,23,0,0,0,3,.45c3.19,0.06,6.39,0,9.59,0,9.39,0,18.78,0,28.16,0,4.66,0,5-.4,5-5.23,0-9.19,0-18.38,0-27.56C82.52,51.79,82.28,50.42,82.16,49.15Zm15,0.59c-4.86,3.17-8.29,7-11.9,10.64-0.17,3.36-.36,6.71-0.48,10.07a29,29,0,0,0,.23,3.14c3.12,3,6.23,6,9.5,8.94,0.73,0.65,2,.68,3.11,1C98.49,75.94,98.28,54.72,97.2,49.75Z" transform="translate(0 0)"/></svg>